<svg width="40" height="40" viewBox="0 0 40 40" fill="none" xmlns="http://www.w3.org/2000/svg">
<path d="M24 20C24 22.2092 22.2092 24 20 24C17.7908 24 16 22.2092 16 20C16 17.7908 17.7908 16 20 16C22.2092 16 24 17.7908 24 20Z" fill="#5CA300"/>
<path d="M28.558 13.5254C28.3821 13.0487 28.1015 12.6173 27.7369 12.2631C27.3827 11.8985 26.9515 11.6179 26.4746 11.442C26.0878 11.2917 25.5067 11.1129 24.4363 11.0642C23.2785 11.0114 22.9313 11 20.0001 11C17.0687 11 16.7215 11.0111 15.564 11.0639C14.4936 11.1129 13.9122 11.2917 13.5257 11.442C13.0487 11.6179 12.6173 11.8985 12.2634 12.2631C11.8988 12.6173 11.6182 13.0485 11.442 13.5254C11.2917 13.9122 11.1129 14.4936 11.0642 15.564C11.0114 16.7215 11 17.0687 11 20.0001C11 22.9313 11.0114 23.2785 11.0642 24.4363C11.1129 25.5067 11.2917 26.0878 11.442 26.4746C11.6182 26.9515 11.8985 27.3827 12.2631 27.7369C12.6173 28.1015 13.0485 28.3821 13.5254 28.558C13.9122 28.7086 14.4936 28.8874 15.564 28.9361C16.7215 28.9889 17.0684 29 19.9999 29C22.9316 29 23.2788 28.9889 24.436 28.9361C25.5064 28.8874 26.0878 28.7086 26.4746 28.558C27.432 28.1887 28.1887 27.432 28.558 26.4746C28.7083 26.0878 28.8871 25.5067 28.9361 24.4363C28.9889 23.2785 29 22.9313 29 20.0001C29 17.0687 28.9889 16.7215 28.9361 15.564C28.8874 14.4936 28.7086 13.9122 28.558 13.5254ZM20.0001 25.6371C16.8866 25.6371 14.3627 23.1134 14.3627 19.9999C14.3627 16.8863 16.8866 14.3627 20.0001 14.3627C23.1134 14.3627 25.6373 16.8863 25.6373 19.9999C25.6373 23.1134 23.1134 25.6371 20.0001 25.6371ZM25.8602 15.4572C25.1327 15.4572 24.5428 14.8673 24.5428 14.1398C24.5428 13.4122 25.1327 12.8224 25.8602 12.8224C26.5878 12.8224 27.1776 13.4122 27.1776 14.1398C27.1773 14.8673 26.5878 15.4572 25.8602 15.4572Z" fill="#5CA300"/>
<path d="M20 0C8.95599 0 0 8.95599 0 20C0 31.044 8.95599 40 20 40C31.044 40 40 31.044 40 20C40 8.95599 31.044 0 20 0ZM31.4151 24.7348C31.3596 25.9573 31.1652 26.792 30.8813 27.5226C30.2847 29.0652 29.0652 30.2847 27.5226 30.8813C26.7923 31.1652 25.9573 31.3593 24.7351 31.4151C23.5104 31.4709 23.1192 31.4844 20.0003 31.4844C16.8811 31.4844 16.4902 31.4709 15.2652 31.4151C14.043 31.3593 13.208 31.1652 12.4777 30.8813C11.7111 30.593 11.0172 30.141 10.4434 29.5566C9.85931 28.9832 9.40735 28.2889 9.11896 27.5226C8.83514 26.7923 8.64075 25.9573 8.58521 24.7351C8.52875 23.5101 8.51562 23.1189 8.51562 20C8.51562 16.8811 8.52875 16.4899 8.5849 15.2652C8.64044 14.0427 8.83453 13.208 9.11835 12.4774C9.40674 11.7111 9.85901 11.0168 10.4434 10.4434C11.0168 9.85901 11.7111 9.40704 12.4774 9.11865C13.208 8.83484 14.0427 8.64075 15.2652 8.5849C16.4899 8.52905 16.8811 8.51562 20 8.51562C23.1189 8.51562 23.5101 8.52905 24.7348 8.58521C25.9573 8.64075 26.792 8.83484 27.5226 9.11835C28.2889 9.40674 28.9832 9.85901 29.5569 10.4434C30.141 11.0172 30.5933 11.7111 30.8813 12.4774C31.1655 13.208 31.3596 14.0427 31.4154 15.2652C31.4713 16.4899 31.4844 16.8811 31.4844 20C31.4844 23.1189 31.4713 23.5101 31.4151 24.7348Z" fill="#5CA300"/>
</svg>
