<svg width="40" height="40" viewBox="0 0 40 40" fill="none" xmlns="http://www.w3.org/2000/svg">
<path d="M19.9923 0C8.96852 0 0 8.96918 0 19.9938C0 31.0253 8.96852 40 19.9923 40C31.0245 40 40 31.0253 40 19.9938C40 8.96918 31.0245 0 19.9923 0ZM9.84656 27.3403C12.1645 26.6348 14.541 26.277 16.9098 26.277C20.9329 26.277 24.9045 27.2965 28.3972 29.2265C28.605 29.3397 28.7938 29.714 28.8786 30.1799C28.9633 30.6458 28.9296 31.1249 28.7936 31.374C28.6219 31.6938 28.2736 31.9005 27.906 31.9005C27.7238 31.9005 27.5637 31.8595 27.4035 31.773C24.1972 30.0106 20.5687 29.0789 16.9098 29.0789C14.6993 29.0789 12.5292 29.4062 10.4616 30.0506C10.3609 30.0812 10.2573 30.0968 10.1537 30.0968C9.70098 30.0969 9.30807 29.8085 9.17626 29.3806C8.99829 28.7955 9.36643 27.4973 9.84656 27.3403ZM8.97443 19.9742C11.5579 19.2719 14.2278 18.9157 16.9099 18.9157C21.7315 18.9157 26.5195 20.0824 30.7592 22.2913C31.0564 22.4421 31.2754 22.6978 31.3757 23.0113C31.4775 23.3288 31.4468 23.6702 31.288 23.9748C30.9096 24.7153 30.4674 25.2129 30.1873 25.2129C29.9887 25.2129 29.7971 25.1652 29.6063 25.0699C25.6694 23.0198 21.3978 21.9803 16.9098 21.9803C14.4134 21.9803 11.9642 22.3086 9.63252 22.9554C9.52407 22.9848 9.41272 22.9996 9.3019 22.9996C8.74098 22.9997 8.24669 22.6208 8.10033 22.0799C7.91292 21.3763 8.34111 20.1464 8.97443 19.9742ZM8.75108 15.1614C8.63266 15.1907 8.51161 15.2054 8.39121 15.2054C7.71331 15.2055 7.1259 14.7474 6.96275 14.0923C6.75829 13.2631 7.27711 12.2998 8.02846 12.1106C10.9506 11.3928 13.9386 11.0289 16.9098 11.0289C22.6614 11.0289 28.1697 12.322 33.2837 14.873C33.6388 15.0483 33.9036 15.3507 34.0295 15.7246C34.1554 16.0989 34.1276 16.5018 33.9519 16.8577C33.7124 17.337 33.1949 17.8531 32.6245 17.8531C32.4046 17.8531 32.1788 17.8016 31.9788 17.7077C27.2812 15.3574 22.2113 14.1656 16.9099 14.1656C14.1854 14.1658 11.4405 14.5007 8.75108 15.1614Z" fill="#5CA300"/>
</svg>
