<svg width="151" height="151" viewBox="0 0 151 151" fill="none" xmlns="http://www.w3.org/2000/svg">
<path fill-rule="evenodd" clip-rule="evenodd" d="M22.65 37.75C22.65 35.7476 23.4454 33.8272 24.8613 32.4113C26.2772 30.9954 28.1976 30.2 30.2 30.2H120.8C122.802 30.2 124.723 30.9954 126.139 32.4113C127.555 33.8272 128.35 35.7476 128.35 37.75C128.35 39.7523 127.555 41.6727 126.139 43.0886C124.723 44.5045 122.802 45.3 120.8 45.3H30.2C28.1976 45.3 26.2772 44.5045 24.8613 43.0886C23.4454 41.6727 22.65 39.7523 22.65 37.75Z" fill="#C4C4C4"/>
<path fill-rule="evenodd" clip-rule="evenodd" d="M22.65 75.5C22.65 73.4976 23.4454 71.5772 24.8613 70.1613C26.2772 68.7454 28.1976 67.95 30.2 67.95H120.8C122.802 67.95 124.723 68.7454 126.139 70.1613C127.555 71.5772 128.35 73.4976 128.35 75.5C128.35 77.5023 127.555 79.4227 126.139 80.8386C124.723 82.2545 122.802 83.05 120.8 83.05H30.2C28.1976 83.05 26.2772 82.2545 24.8613 80.8386C23.4454 79.4227 22.65 77.5023 22.65 75.5Z" fill="#C4C4C4"/>
<path fill-rule="evenodd" clip-rule="evenodd" d="M22.65 113.25C22.65 111.248 23.4454 109.327 24.8613 107.911C26.2772 106.495 28.1976 105.7 30.2 105.7H120.8C122.802 105.7 124.723 106.495 126.139 107.911C127.555 109.327 128.35 111.248 128.35 113.25C128.35 115.252 127.555 117.173 126.139 118.589C124.723 120.005 122.802 120.8 120.8 120.8H30.2C28.1976 120.8 26.2772 120.005 24.8613 118.589C23.4454 117.173 22.65 115.252 22.65 113.25Z" fill="#C4C4C4"/>
</svg>
